<svg xmlns="http://www.w3.org/2000/svg" width="1200" height="670" viewBox="0 0 1200 670" role="img" aria-label="Position Risk">
<style>
.title{font:700 24px -apple-system,BlinkMacSystemFont,'Segoe UI',sans-serif;fill:#1f2328}
.subtitle{font:13px -apple-system,BlinkMacSystemFont,'Segoe UI',sans-serif;fill:#57606a}
.section{font:700 14px -apple-system,BlinkMacSystemFont,'Segoe UI',sans-serif;fill:#1f2328}
.label{font:600 12px -apple-system,BlinkMacSystemFont,'Segoe UI',sans-serif;fill:#1f2328}
.value{font:600 12px -apple-system,BlinkMacSystemFont,'Segoe UI',sans-serif;fill:#1f2328}
.muted{font:12px -apple-system,BlinkMacSystemFont,'Segoe UI',sans-serif;fill:#57606a}
.flag{font:700 13px -apple-system,BlinkMacSystemFont,'Segoe UI',sans-serif}
</style>
<rect width="1200" height="670" fill="#ffffff"/>
<text class="title" x="36" y="42">Position Risk</text>
<text class="subtitle" x="36" y="67">Synthetic fixture; not a real account</text>
<text class="subtitle" x="36" y="90">source: synthetic fixture | status: synthetic_complete | as of: 2026-07-14</text>
<text class="section" x="36" y="148">concentration</text>
<rect x="36" y="164" width="548" height="244" rx="6" fill="#ffffff" stroke="#d0d7de"/>
<text class="label" x="52" y="203">SYNTH-A</text>
<rect x="174" y="190" width="334" height="16" rx="3" fill="#eaeef2"/>
<rect x="174" y="190" width="334" height="16" rx="3" fill="#24292f"/>
<text class="value" x="522" y="203">32.0%</text>
<text class="label" x="52" y="237">SYNTH-B</text>
<rect x="174" y="224" width="334" height="16" rx="3" fill="#eaeef2"/>
<rect x="174" y="224" width="219" height="16" rx="3" fill="#24292f"/>
<text class="value" x="522" y="237">21.0%</text>
<text class="label" x="52" y="271">SYNTH-C</text>
<rect x="174" y="258" width="334" height="16" rx="3" fill="#eaeef2"/>
<rect x="174" y="258" width="167" height="16" rx="3" fill="#24292f"/>
<text class="value" x="522" y="271">16.0%</text>
<text class="label" x="52" y="305">SYNTH-D</text>
<rect x="174" y="292" width="334" height="16" rx="3" fill="#eaeef2"/>
<rect x="174" y="292" width="114" height="16" rx="3" fill="#24292f"/>
<text class="value" x="522" y="305">11.0%</text>
<text class="section" x="616" y="148">instrument / product</text>
<rect x="616" y="164" width="548" height="104" rx="6" fill="#ffffff" stroke="#d0d7de"/>
<rect x="632.0" y="182" width="319.9" height="20" fill="#24292f"/>
<rect x="951.9" y="182" width="196.1" height="20" fill="#57606a"/>
<rect x="632" y="222" width="10" height="10" fill="#24292f"/>
<text class="muted" x="648" y="231">Equity 62.0%</text>
<rect x="890" y="222" width="10" height="10" fill="#57606a"/>
<text class="muted" x="906" y="231">ETF 38.0%</text>
<text class="section" x="616" y="282">theme exposure</text>
<rect x="616" y="298" width="548" height="104" rx="6" fill="#ffffff" stroke="#d0d7de"/>
<rect x="632.0" y="316" width="227.0" height="20" fill="#24292f"/>
<rect x="859.0" y="316" width="185.8" height="20" fill="#57606a"/>
<rect x="1044.8" y="316" width="103.2" height="20" fill="#8c959f"/>
<rect x="632" y="356" width="10" height="10" fill="#24292f"/>
<text class="muted" x="648" y="365">AI hardware 44.0%</text>
<rect x="804" y="356" width="10" height="10" fill="#57606a"/>
<text class="muted" x="820" y="365">Broad market 36.0%</text>
<rect x="976" y="356" width="10" height="10" fill="#8c959f"/>
<text class="muted" x="992" y="365">Defensive 20.0%</text>
<text class="section" x="616" y="416">broker exposure</text>
<rect x="616" y="432" width="548" height="104" rx="6" fill="#ffffff" stroke="#d0d7de"/>
<rect x="632.0" y="450" width="299.3" height="20" fill="#24292f"/>
<rect x="931.3" y="450" width="216.7" height="20" fill="#57606a"/>
<rect x="632" y="490" width="10" height="10" fill="#24292f"/>
<text class="muted" x="648" y="499">Broker A 58.0%</text>
<rect x="890" y="490" width="10" height="10" fill="#57606a"/>
<text class="muted" x="906" y="499">Broker B 42.0%</text>
<text class="section" x="36" y="548">material risk flags</text>
<rect x="36.0" y="564" width="557.0" height="76" rx="6" fill="#fff8c5" stroke="#9a6700"/>
<text class="flag" x="50.0" y="589" style="fill:#9a6700">Theme concentration</text>
<text class="muted" x="50.0" y="614">AI hardware is 44% of the synthetic exposure.</text>
<rect x="607.0" y="564" width="557.0" height="76" rx="6" fill="#ffebe9" stroke="#cf222e"/>
<text class="flag" x="621.0" y="589" style="fill:#cf222e">Single-name concentration</text>
<text class="muted" x="621.0" y="614">SYNTH-A is 32% of the synthetic exposure.</text>
<text class="muted" x="36" y="656">Decision support only. Missing dimensions remain unavailable. No live broker reads. No order actions.</text>
</svg>
